<svg width="799" height="207" fill="none" xmlns="http://www.w3.org/2000/svg">
    <g clip-path="url(#a)">
        <path d="M129.51 65.16a64.645 64.645 0 0 1-18.936 45.714 64.645 64.645 0 0 1-91.428 0A64.648 64.648 0 0 1 64.86.51a64.648 64.648 0 0 1 64.65 64.65Zm-11.6 0a53.059 53.059 0 0 0-90.58-37.52 53.06 53.06 0 1 0 90.58 37.52Z" fill="#FF830A"/>
        <path d="M499.71 102.97v-92.6a3.68 3.68 0 0 1 3.67-3.68l7.69-.02a3.398 3.398 0 0 1 3.4 3.4v109.89a3.209 3.209 0 0 1-3.16 3.21c-3.227.047-6.193.027-8.9-.06-2.71-.09-5.27-1.93-7.06-3.98-32.333-37.153-64.673-74.35-97.02-111.59a.502.502 0 0 1-.116-.26.503.503 0 0 1 .225-.496.506.506 0 0 1 .271-.084l14.03-.02a4.103 4.103 0 0 1 1.722.37 4.163 4.163 0 0 1 1.418 1.06l82.49 95.36c.893 1.033 1.34.867 1.34-.5ZM202.76 27.98v92.34c0 .753-.298 1.476-.829 2.008a2.823 2.823 0 0 1-2.001.832l-7.3.02a3.05 3.05 0 0 1-3.05-3.05V10.04a3.368 3.368 0 0 1 3.41-3.37c2.42.02 4.92.023 7.5.01 1.073-.007 2.147.617 3.22 1.87a16592.2 16592.2 0 0 1 49.34 57.92 1.13 1.13 0 0 0 .856.388 1.11 1.11 0 0 0 .844-.398l48.31-58.25a4.223 4.223 0 0 1 3.25-1.53l11.97.01a.688.688 0 0 1 .63.407.718.718 0 0 1-.1.753L256.8 81.99a3.759 3.759 0 0 1-2.862 1.349 3.778 3.778 0 0 1-2.888-1.309l-47.04-54.51c-.833-.967-1.25-.813-1.25.46ZM607.02 6.68h-9.42a3.33 3.33 0 0 0-3.33 3.33v109.82a3.33 3.33 0 0 0 3.33 3.33h9.42a3.33 3.33 0 0 0 3.33-3.33V10.01a3.33 3.33 0 0 0-3.33-3.33ZM799 121.55v1.36l-14.27.26a1.902 1.902 0 0 1-1.74-1.07L769.9 94.64c-.173-.36-.46-.54-.86-.54l-54.77-.01a.99.99 0 0 1-.88-1.43l5.24-10.44a3.024 3.024 0 0 1 2.71-1.67l40.98.01a.448.448 0 0 0 .41-.64l-28.19-60.76c-.7-1.513-1.287-1.47-1.76.13-.147.493-.467 1.247-.96 2.26a76306.545 76306.545 0 0 0-49.06 100.65 1.705 1.705 0 0 1-1.54.96l-11.88.01a1.195 1.195 0 0 1-.968-.495 1.18 1.18 0 0 1-.162-1.075c.047-.133.11-.283.19-.45 18.54-37.68 36.85-74.87 54.93-111.57.84-1.7 3.8-3.06 5.91-2.97 3.013.127 5.99.137 8.93.03 2.95-.11 5.1 1.75 6.37 4.32A98794.923 98794.923 0 0 1 799 121.55ZM399.52 29.66c3.65 4.11 7.26 8.33 10.77 12.53 1.31 1.56 2.88 3.02 2.88 5.31-.02 22.72-.027 46.823-.02 72.31 0 .888-.352 1.741-.978 2.369a3.337 3.337 0 0 1-2.362.981h-7.85a3.196 3.196 0 0 1-2.965-1.973 3.191 3.191 0 0 1-.245-1.227l-.01-90c0-.78.26-.88.78-.3ZM309.81 38.91a447.99 447.99 0 0 0 7.79-9.03c.613-.727.92-.613.92.34l-.01 89.99c0 .785-.313 1.538-.87 2.093a2.975 2.975 0 0 1-2.1.867l-8.42-.01a3.275 3.275 0 0 1-3.03-2.031 3.295 3.295 0 0 1-.25-1.259V47.22c0-.54.164-1.064.47-1.5 1.353-1.933 3.187-4.203 5.5-6.81Z" fill="#27272A"/>
        <path d="M100.08 65.24a35.22 35.22 0 1 1-70.44 0 35.22 35.22 0 0 1 70.44 0Zm-11.59-.02a23.63 23.63 0 1 0-47.26 0 23.63 23.63 0 0 0 47.26 0Z" fill="#FF830A"/>
        <path d="M64.85 75.74c5.816 0 10.53-4.714 10.53-10.53 0-5.816-4.715-10.53-10.53-10.53-5.816 0-10.53 4.714-10.53 10.53 0 5.816 4.714 10.53 10.53 10.53Z" fill="#FF830A"/>
        <path d="M194.91 196.87c5.3 4.69 13.63 4.3 18.34-1.26.127-.147.253-.147.38 0l3.92 4.4c.133.153.13.3-.01.44-4.173 4.193-9.047 6.273-14.62 6.24-7.22-.05-13.67-3.99-16.69-10.4-5.22-11.09 1.15-23.59 13.19-25.95 6.613-1.3 12.623.543 18.03 5.53.153.147.163.3.03.46l-3.83 4.83a.236.236 0 0 1-.078.062.238.238 0 0 1-.282-.062c-2.767-3.227-6.12-4.837-10.06-4.83-10.68.02-16.56 13.23-8.32 20.54ZM279.609 188.574c-.06 4.892-2.132 9.56-5.76 12.976-3.627 3.416-8.514 5.301-13.584 5.239a19.747 19.747 0 0 1-7.3-1.494 19.182 19.182 0 0 1-6.153-4.075 18.425 18.425 0 0 1-4.072-6.036 17.909 17.909 0 0 1-1.369-7.078c.06-4.892 2.132-9.56 5.759-12.976 3.628-3.416 8.515-5.301 13.585-5.239 2.511.031 4.991.539 7.3 1.494a19.182 19.182 0 0 1 6.153 4.075 18.425 18.425 0 0 1 4.072 6.036 17.909 17.909 0 0 1 1.369 7.078Zm-6.821-.448c-.049-3.166-1.396-6.182-3.743-8.385-2.347-2.202-5.503-3.411-8.773-3.359a12.676 12.676 0 0 0-4.703.982 12.372 12.372 0 0 0-3.959 2.651 11.922 11.922 0 0 0-2.612 3.915 11.623 11.623 0 0 0-.867 4.584c.05 3.166 1.397 6.182 3.744 8.385 2.347 2.202 5.503 3.411 8.772 3.359a12.68 12.68 0 0 0 4.704-.982 12.383 12.383 0 0 0 3.959-2.651 11.922 11.922 0 0 0 2.612-3.915c.597-1.458.891-3.016.866-4.584ZM394.89 175.86c.133.12.143.25.03.39l-3.89 4.97c-.107.133-.217.133-.33 0-2.173-2.56-4.527-4.067-7.06-4.52-6.773-1.227-11.577 1.257-14.41 7.45-1.293 2.82-1.227 5.69.2 8.61 2.933 5.967 7.82 8.267 14.66 6.9 2.62-.52 4.773-1.89 6.46-4.11.107-.14.22-.147.34-.02l4.02 4.42a.412.412 0 0 1 .116.304.418.418 0 0 1-.136.296c-6.513 5.987-13.557 7.627-21.13 4.92-4.707-1.68-8.093-4.763-10.16-9.25-2.733-5.947-2.48-11.677.76-17.19 2.66-4.533 6.737-7.413 12.23-8.64 6.493-1.447 12.593.377 18.3 5.47ZM609.32 197.54l-.04-9.79c0-.32.16-.48.48-.48h5.25c.34 0 .51.167.51.5l.01 13.32a.919.919 0 0 1-.4.8c-5.693 4.24-11.627 5.69-17.8 4.35-5.667-1.233-9.897-4.463-12.69-9.69a16.802 16.802 0 0 1-2.02-7.31c-.43-9.3 5.77-16.75 14.64-18.76 6.733-1.52 12.913.133 18.54 4.96a.52.52 0 0 1 .08.71l-3.48 4.53a.404.404 0 0 1-.491.127.44.44 0 0 1-.149-.107c-4.5-5.01-12.44-5.91-17.79-1.74-8.22 6.41-5.06 18.33 4.61 20.94 3.34.907 6.75.407 10.23-1.5a.919.919 0 0 0 .51-.86ZM308.34 206.51l-6.44-.01a.306.306 0 0 1-.148-.039.305.305 0 0 1-.16-.25.313.313 0 0 1 .028-.151l16.13-35.9a.308.308 0 0 1 .28-.18l5.28-.07a.312.312 0 0 1 .28.19l16.12 35.95a.313.313 0 0 1-.02.296.305.305 0 0 1-.112.105.306.306 0 0 1-.148.039l-6.6.01a.312.312 0 0 1-.28-.19l-3.57-8.1a.312.312 0 0 0-.28-.19h-16.13a.308.308 0 0 0-.28.18l-3.67 8.13a.308.308 0 0 1-.28.18Zm7.14-15.82a.601.601 0 0 0 .55.84l9.13-.01a.596.596 0 0 0 .508-.274.597.597 0 0 0 .042-.576l-4.58-10.21a.606.606 0 0 0-.55-.36.6.6 0 0 0-.55.36l-4.55 10.23ZM429.48 192.13l.02 13.8a.56.56 0 0 1-.56.56l-5.41.03a.56.56 0 0 1-.56-.56l-.01-35.45a.56.56 0 0 1 .56-.56l5.41-.01a.561.561 0 0 1 .56.56l-.01 14.2a.56.56 0 0 0 .56.56h16.23a.561.561 0 0 0 .56-.56l-.03-14.19a.56.56 0 0 1 .56-.56l5.79-.02a.561.561 0 0 1 .56.56l.01 35.45a.56.56 0 0 1-.56.56h-5.8a.557.557 0 0 1-.56-.56l.02-13.82a.56.56 0 0 0-.56-.56l-16.22.01a.56.56 0 0 0-.56.56ZM491.31 169.94h-5.66a.41.41 0 0 0-.41.41v35.74c0 .226.184.41.41.41h5.66a.41.41 0 0 0 .41-.41v-35.74a.41.41 0 0 0-.41-.41ZM530.05 185.75l.01 20.34c0 .273-.133.41-.4.41h-5.9c-.333 0-.5-.163-.5-.49l.01-35.56c0-.133.053-.26.146-.354a.504.504 0 0 1 .354-.146c1.77.02 5.15-.6 6.35 1 5.153 6.853 10.37 13.85 15.65 20.99 1.287 1.733 1.93 1.523 1.93-.63l-.01-20.48c0-.58.287-.87.86-.87l4.66-.03a1.016 1.016 0 0 1 .951.634c.052.125.079.26.079.396v34.92c0 .407-.207.613-.62.62l-4.87.01a1.282 1.282 0 0 1-1.02-.51l-15.64-20.93c-1.36-1.813-2.04-1.587-2.04.68Z" fill="#27272A"/>
    </g>
    <defs>
        <clipPath id="a">
            <path fill="#fff" d="M0 0h799v207H0z"/>
        </clipPath>
    </defs>
</svg>
